<mxfile host="app.diagrams.net" modified="2024-03-31T12:53:07.125Z" agent="Mozilla/5.0 (Macintosh; Intel Mac OS X 10.15; rv:124.0) Gecko/20100101 Firefox/124.0" version="24.2.1" etag="tm751W4hrSWwSsZADiDe" type="github">
  <diagram name="第 1 页" id="BMxXOwRP2a9sqrWKzQ4w">
    <mxGraphModel>
      <root>
        <mxCell id="0" />
        <mxCell id="1" parent="0" />
      </root>
    </mxGraphModel>
  </diagram>
</mxfile>
